<svg width="500" height="500" viewBox="0 0 500 500" fill="none" xmlns="http://www.w3.org/2000/svg">
    <path
        d="M500 250C500 388.071 388.071 500 250 500C111.929 500 0 388.071 0 250C0 111.929 111.929 0 250 0C388.071 0 500 111.929 500 250ZM28.2879 250C28.2879 372.448 127.552 471.712 250 471.712C372.448 471.712 471.712 372.448 471.712 250C471.712 127.552 372.448 28.2879 250 28.2879C127.552 28.2879 28.2879 127.552 28.2879 250Z"
        fill="#dc2625" />
    <circle cx="250" cy="250" r="200" fill="#dc2625" />
    <rect x="230" y="185" width="40" height="190" fill="white" />
    <rect x="178.823" y="302.568" width="40.5963" height="38.8235" transform="rotate(-90 178.823 302.568)"
        fill="white" />
    <rect x="282.354" y="302.568" width="40.5963" height="38.8235" transform="rotate(-90 282.354 302.568)"
        fill="white" />
    <rect x="321.177" y="161.835" width="38.8235" height="238.165" fill="white" />
    <rect x="140" y="161.835" width="38.8235" height="235.459" fill="white" />
    <rect x="140" y="145.597" width="40.5963" height="220" transform="rotate(-90 140 145.597)" fill="white" />
</svg>